<svg xmlns="http://www.w3.org/2000/svg" shape-rendering="geometricPrecision" text-rendering="geometricPrecision" image-rendering="optimizeQuality" fill-rule="evenodd" clip-rule="evenodd" viewBox="0 0 382 511.728"><path d="M7.935 50.682h28.353C86.403 16.712 139.26 0 192.23 0c53.554 0 107.136 17.087 158.023 50.682h23.81a4.979 4.979 0 014.976 4.977V95.79a4.979 4.979 0 01-4.976 4.977H7.935a4.98 4.98 0 01-4.977-4.977V55.659a4.98 4.98 0 014.977-4.977zm171.189 159.832h23.737c4.435 0 8.068 3.631 8.068 8.069v29.47h29.473c4.435 0 8.066 3.633 8.066 8.068v23.737c0 4.435-3.631 8.066-8.066 8.066h-29.473v28.78c0 4.437-3.633 8.068-8.068 8.068h-23.737c-4.435 0-8.066-3.631-8.066-8.068v-28.78h-29.462c-4.438 0-8.069-3.631-8.069-8.066v-23.747c0-4.437 3.631-8.069 8.069-8.069h29.472v-29.459c0-4.438 3.621-8.069 8.056-8.069zm11.873-55.686c31.148 0 59.358 12.632 79.772 33.043 20.413 20.416 33.042 48.621 33.042 79.768 0 31.151-12.632 59.358-33.042 79.772-20.414 20.41-48.624 33.042-79.772 33.042-31.148 0-59.355-12.632-79.768-33.042-20.411-20.414-33.043-48.624-33.043-79.772 0-31.147 12.629-59.352 33.043-79.768 20.413-20.411 48.62-33.043 79.768-33.043zm73.175 39.64c-18.725-18.723-44.599-30.307-73.175-30.307-28.575 0-54.446 11.584-73.171 30.307-18.723 18.725-30.307 44.596-30.307 73.171 0 28.575 11.584 54.45 30.307 73.175 18.725 18.722 44.596 30.306 73.171 30.306 28.576 0 54.45-11.584 73.175-30.306 18.722-18.725 30.306-44.597 30.306-73.175 0-28.575-11.584-54.446-30.306-73.171zm14.688 317.26H103.138c-20.497 0-34.789-16.628-37.166-36.011L64.4 462.888H38.639v29.409c0 3.765-3.094 6.86-6.859 6.86H6.859c-3.765 0-6.859-3.087-6.859-6.86v-83.712c0-3.774 3.087-6.861 6.859-6.861H31.78c3.772 0 6.859 3.094 6.859 6.861v29.405h22.709L21.28 111.106h339.44L320.647 437.99h22.714v-29.405c0-3.774 3.087-6.861 6.859-6.861h24.919c3.774 0 6.861 3.091 6.861 6.861v83.712c0 3.77-3.092 6.86-6.861 6.86H350.22c-3.77 0-6.859-3.087-6.859-6.86v-29.409h-25.766l-1.572 12.829c-2.379 19.463-16.666 36.011-37.163 36.011zm-175.722-10.2H278.86c14.875 0 25.234-12.28 27.043-27.046l43.294-353.176H32.801l43.291 353.176c1.807 14.736 12.171 27.046 27.046 27.046zm58.226-460.759h59.267a3.554 3.554 0 013.545 3.541v17.399a3.55 3.55 0 01-3.54 3.543h-59.272a3.558 3.558 0 01-3.543-3.543V44.314a3.562 3.562 0 013.546-3.545h-.003z"/></svg>