<svg xmlns="http://www.w3.org/2000/svg" shape-rendering="geometricPrecision" text-rendering="geometricPrecision" image-rendering="optimizeQuality" fill-rule="evenodd" clip-rule="evenodd" viewBox="0 0 390 512.022"><path d="M7.003 410.128h25.44c3.854 0 7.006 3.157 7.006 7.006v30.02h19.019L15.639 112.897h358.719l-42.829 334.257h19.022v-30.02c0-3.854 3.152-7.006 7.003-7.006h25.441c3.853 0 7.005 3.157 7.005 7.006v85.465c0 3.849-3.157 7.003-7.005 7.003h-25.441c-3.846 0-7.003-3.152-7.003-7.003v-30.025h-22.279l-1.518 11.839c-1.929 15.063-12.423 27.609-27.609 27.609H90.852c-15.183 0-25.68-12.564-27.609-27.609l-1.518-11.839H39.449v30.025c0 3.846-3.159 7.003-7.006 7.003H7.003c-3.846 0-7.003-3.152-7.003-7.003v-85.465c0-3.854 3.152-7.006 7.003-7.006zm175.872-194.737h24.234c4.528 0 8.235 3.707 8.235 8.235v30.089h30.09c4.53 0 8.237 3.707 8.237 8.238v24.234c0 4.528-3.707 8.235-8.237 8.235h-30.09v29.382c0 4.53-3.707 8.237-8.235 8.237h-24.234c-4.53 0-8.237-3.707-8.237-8.237v-29.382h-30.08c-4.527 0-8.234-3.707-8.234-8.235v-24.244c0-4.531 3.707-8.238 8.234-8.238h30.093v-30.079c0-4.528 3.694-8.235 8.224-8.235zM8.101 51.743h28.948C88.213 17.062 142.176 0 196.256 0c54.676 0 109.38 17.445 161.332 51.743h24.308a5.084 5.084 0 015.081 5.081v40.964a5.084 5.084 0 01-5.081 5.081H8.101a5.084 5.084 0 01-5.081-5.081V56.824a5.084 5.084 0 015.081-5.081zm156.642-10.128h60.509a3.625 3.625 0 013.619 3.614v17.764a3.622 3.622 0 01-3.614 3.618h-60.514a3.633 3.633 0 01-3.617-3.618V45.235a3.637 3.637 0 013.62-3.62h-.003zm30.254 130.442c56.145 0 101.66 45.515 101.66 101.658 0 56.145-45.515 101.66-101.66 101.66-56.142 0-101.657-45.515-101.657-101.66 0-56.143 45.515-101.658 101.657-101.658z"/></svg>