<svg xmlns="http://www.w3.org/2000/svg" shape-rendering="geometricPrecision" text-rendering="geometricPrecision" image-rendering="optimizeQuality" fill-rule="evenodd" clip-rule="evenodd" viewBox="0 0 390 512.023"><path fill="#373737" d="M7.005 410.128h25.438c3.854 0 7.006 3.157 7.006 7.006v30.02h19.019l3.257 25.42H39.449v30.025c0 3.846-3.157 7.003-7.006 7.003H7.005c-3.848 0-7.005-3.152-7.005-7.003v-85.465c0-3.854 3.152-7.006 7.005-7.006zm324.524 37.026h19.022v-30.02c0-3.854 3.152-7.006 7.006-7.006h25.438c3.853 0 7.005 3.157 7.005 7.006v85.465c0 3.849-3.157 7.003-7.005 7.003h-25.438c-3.849 0-7.006-3.152-7.006-7.003v-30.025h-22.279l3.257-25.42z"/><path fill="#51C1FB" d="M90.854 512.023h208.291c15.186 0 25.681-12.547 27.611-27.61l47.603-371.516H15.64l47.604 371.516c1.928 15.044 12.424 27.61 27.61 27.61z"/><path fill="#fff" d="M195 174.481c54.805 0 99.237 44.429 99.237 99.234 0 54.807-44.432 99.236-99.237 99.236-54.807 0-99.237-44.429-99.237-99.236 0-54.805 44.43-99.234 99.237-99.234z"/><path fill="#373737" fill-rule="nonzero" d="M8.101 51.743h28.948C88.213 17.062 142.176 0 196.256 0c54.676 0 109.38 17.445 161.332 51.743h24.308a5.084 5.084 0 015.081 5.081v40.964a5.084 5.084 0 01-5.081 5.081H8.101a5.084 5.084 0 01-5.081-5.081V56.824a5.084 5.084 0 015.081-5.081z"/><path fill="#fff" d="M164.743 41.614h60.509a3.63 3.63 0 013.621 3.617v17.763a3.625 3.625 0 01-3.616 3.617h-60.514a3.631 3.631 0 01-3.616-3.617V45.235c.01-2 1.625-3.611 3.621-3.621h-.005z"/><path fill="#DC3E38" d="M182.876 215.391h24.234c4.529 0 8.236 3.707 8.236 8.236v30.089h30.089c4.529 0 8.236 3.707 8.236 8.236v24.234c0 4.529-3.707 8.237-8.236 8.237h-30.089v29.381c0 4.529-3.707 8.236-8.236 8.236h-24.234c-4.529 0-8.237-3.707-8.237-8.236v-29.381H144.56c-4.528 0-8.236-3.708-8.236-8.237v-24.245c0-4.528 3.708-8.236 8.236-8.236h30.09v-30.078c0-4.529 3.697-8.236 8.226-8.236z"/></svg>