<svg xmlns="http://www.w3.org/2000/svg" width="512" height="512" viewBox="0 0 512 512" version="1.1">
	<path d="M 246 6.462 C 233.464 9.150, 221.474 14.438, 212 21.457 C 205.501 26.272, 193.031 39.317, 188.126 46.431 C 176.769 62.903, 171.162 78.020, 167.997 100.704 C 166.192 113.638, 165.437 116.507, 161.990 123.500 C 159.822 127.900, 154.740 135.583, 150.698 140.574 C 141.754 151.617, 139.045 156.996, 137.726 166.337 C 136.150 177.493, 138.727 186.346, 147.892 201.250 L 150.198 205 147.664 205 C 146.270 205, 143.976 204.561, 142.565 204.025 C 138.982 202.662, 139.285 204.203, 143.523 208.894 C 148.440 214.336, 153.045 216.233, 163 216.917 L 171.500 217.500 157.584 224.769 C 149.931 228.767, 141.509 233.684, 138.870 235.697 C 125.840 245.634, 116.013 267.111, 115.992 285.697 C 115.988 289.439, 115.531 295.297, 114.976 298.715 C 113.390 308.490, 101.523 347.578, 94.272 366.914 C 90.645 376.587, 86.857 387.650, 85.856 391.500 C 81.057 409.942, 86.025 426.933, 100.500 441.586 C 115.334 456.603, 125.838 457.950, 153.881 448.431 C 155.459 447.896, 155.059 455.426, 152.393 476.468 C 150.951 487.849, 150.966 488.502, 152.688 489.761 C 157.853 493.538, 187.963 500.855, 209.111 503.474 C 221.828 505.048, 261.045 505.592, 272.853 504.358 L 279 503.715 279.124 463.108 C 279.193 440.773, 279.530 419.350, 279.874 415.500 L 280.500 408.500 292.090 407.868 C 304.213 407.206, 309.292 405.664, 315.257 400.832 C 317.564 398.964, 319.279 398.591, 325.757 398.549 L 333.500 398.500 333.708 406 C 334.521 435.258, 338.311 497.507, 339.352 498.667 C 339.811 499.180, 349.575 496.825, 350.397 496.003 C 351.380 495.020, 350.805 486.359, 347.459 451.708 C 346.620 443.022, 346.213 435.464, 346.555 434.911 C 346.901 434.352, 349.152 435.729, 351.636 438.019 C 361.989 447.562, 375.071 450.531, 384.875 445.563 C 394.612 440.629, 404.486 426.653, 407.540 413.482 C 409.255 406.089, 408.967 402.103, 406.025 392.500 C 402.907 382.320, 402.908 382.064, 406.139 375.366 C 408.927 369.585, 409.078 368.755, 407.969 365.283 C 407.230 362.971, 404.647 359.505, 401.323 356.367 L 395.886 351.233 411.498 338.033 C 420.085 330.773, 426.940 324.321, 426.731 323.694 C 426.523 323.068, 425.266 322.299, 423.938 321.985 C 422.341 321.608, 420.489 319.571, 418.461 315.958 L 415.396 310.500 404.643 310.500 L 393.890 310.500 387.442 301.593 C 379.121 290.100, 376.620 284.831, 373.393 272 C 367.174 247.273, 359.111 236.718, 338.500 226.323 C 331.900 222.995, 324.475 219.517, 322 218.595 C 319.525 217.673, 315.739 215.441, 313.587 213.634 L 309.675 210.350 317.806 208.719 C 345.984 203.067, 356.521 185.118, 347.950 157.373 C 341.516 136.543, 341.714 126.769, 349.083 101.470 C 355.291 80.158, 355.389 68.798, 349.467 57 C 345.548 49.192, 338.439 43.218, 330.500 41.063 C 327.386 40.218, 325.924 39.023, 323.901 35.670 C 322.074 32.642, 319.886 30.697, 316.532 29.120 C 313.907 27.886, 308.278 24.043, 304.022 20.578 C 291.024 9.998, 280.287 6.035, 263 5.433 C 256.420 5.204, 250.073 5.588, 246 6.462 M 302.463 61.827 C 293.169 70.780, 282.452 77.761, 266 85.579 C 237.670 99.042, 233.062 102.247, 230.416 110.325 C 229.484 113.171, 227.434 118.075, 225.861 121.221 C 222.374 128.195, 222.359 128.801, 225.517 135.033 C 228.434 140.789, 227.563 141.348, 220.940 137.970 C 217.480 136.204, 216.884 136.139, 216.373 137.470 C 215.456 139.861, 212.364 139.270, 210.191 136.288 C 208.491 133.954, 207.992 133.762, 206.608 134.910 C 204.070 137.017, 204.679 138.942, 209.368 143.632 C 213.148 147.412, 214.306 148, 217.964 148 C 220.632 148, 223.260 147.239, 225.089 145.937 C 226.682 144.802, 228.449 144.159, 229.014 144.509 C 229.580 144.858, 232.333 149.928, 235.132 155.775 C 239.158 164.185, 241.504 167.676, 246.361 172.482 C 257.215 183.224, 273.218 189.140, 292.044 189.371 C 303.579 189.512, 307.516 188.159, 308.431 183.737 C 310.210 175.137, 315.578 153.054, 317.604 146 C 319.850 138.180, 319.953 136.923, 318.891 130.285 C 317.830 123.652, 317.584 123.153, 315.834 124.089 C 314.788 124.649, 311.810 124.970, 309.216 124.803 C 304.349 124.490, 304.386 124.540, 305.250 119.559 C 305.662 117.184, 303.590 117.548, 302.301 120.077 C 301.200 122.237, 301.044 122.278, 300.394 120.584 C 299.422 118.051, 302.775 112.120, 306.496 109.792 C 308.758 108.376, 310.982 107.984, 315.500 108.206 L 321.500 108.500 321.800 103.871 C 322.074 99.637, 321.883 99.187, 319.558 98.604 C 316.509 97.839, 311.649 99.728, 307.356 103.348 C 303.442 106.649, 301.622 106.801, 302.548 103.750 C 304.235 98.186, 313.059 93.162, 319.041 94.358 L 322.119 94.974 321.462 90.237 C 319.273 74.451, 315.477 61.764, 311.660 57.475 L 309.500 55.048 302.463 61.827 M 251.994 95.934 C 247.628 97.262, 243.594 99.723, 240.573 102.900 C 236.441 107.246, 237.851 107.632, 243.967 103.830 C 248.020 101.310, 250.570 100.496, 255.345 100.194 C 260.872 99.846, 262.210 100.176, 268.450 103.433 C 275.404 107.062, 278 107.371, 278 104.570 C 278 102.034, 274.168 99.337, 267.421 97.122 C 260.776 94.940, 256.375 94.601, 251.994 95.934 M 255.239 111.284 C 253.445 111.963, 250.310 113.849, 248.271 115.475 C 245.686 117.538, 243.686 118.341, 241.664 118.129 C 238.878 117.836, 238.823 117.909, 240.276 119.983 C 242.224 122.765, 251.468 128.724, 255.057 129.513 C 260.422 130.691, 270 126.787, 270 123.422 C 270 122.724, 268.835 120.769, 267.411 119.077 C 265.566 116.883, 265.243 116, 266.289 116 C 267.095 116, 268.315 116.675, 269 117.500 C 270.587 119.412, 273 119.442, 273 117.551 C 273 115.229, 266.413 110.854, 262.287 110.435 C 260.204 110.224, 257.032 110.606, 255.239 111.284 M 313 114.500 C 313 115.325, 313.188 116, 313.418 116 C 313.648 116, 314.548 116.273, 315.418 116.607 C 316.552 117.042, 317 116.617, 317 115.107 C 317 113.667, 316.367 113, 315 113 C 313.889 113, 313 113.667, 313 114.500 M 250.540 122.347 C 248.699 123.693, 248.958 124.143, 252.250 125.314 C 253.612 125.799, 254 125.390, 254 123.469 C 254 120.671, 253.191 120.409, 250.540 122.347 M 304.564 145.293 C 304.940 146.279, 305.499 146.834, 305.807 146.526 C 306.115 146.219, 305.808 145.412, 305.124 144.733 C 304.136 143.753, 304.022 143.868, 304.564 145.293 M 296.538 149.348 C 294.441 150.882, 295.233 153, 297.904 153 C 299.598 153, 303 150.110, 303 148.671 C 303 147.480, 298.439 147.958, 296.538 149.348 M 287.482 151.030 C 287.093 151.659, 287.242 152.642, 287.814 153.214 C 289.174 154.574, 294.260 153.286, 293.744 151.713 C 293.215 150.103, 288.380 149.575, 287.482 151.030 M 291.872 158.996 C 289.326 159.438, 286.318 160.295, 285.187 160.900 C 284.057 161.505, 281.752 162, 280.066 162 C 276.049 162, 276.198 163.021, 280.750 166.678 C 288.862 173.196, 293.670 174.316, 300.980 171.391 C 304.391 170.026, 305 169.340, 305 166.856 C 305 165.247, 305.727 162.820, 306.615 161.465 L 308.230 159 304.365 158.986 C 302.239 158.979, 299.600 158.797, 298.500 158.583 C 297.400 158.368, 294.417 158.554, 291.872 158.996 M 289 167 C 287.859 167.737, 288.219 167.945, 290.500 167.866 C 292.150 167.810, 294.850 167.420, 296.500 167 C 299.236 166.304, 299.104 166.228, 295 166.134 C 292.525 166.077, 289.825 166.467, 289 167 M 234.443 185.065 L 234.697 203.075 237.599 206.139 C 244.646 213.582, 262.468 223.998, 268.161 223.999 C 269.913 224, 271.718 222.935, 273.443 220.886 C 275.969 217.883, 276.053 217.375, 275.782 206.781 L 275.500 195.790 267.385 193.069 C 253.374 188.371, 244.191 182.034, 238.032 172.810 L 234.189 167.055 234.443 185.065 M 210.661 201.463 C 199.337 214.182, 196.861 219.327, 196.226 231.464 C 195.757 240.436, 195.841 240.932, 198.241 243.331 C 201.439 246.530, 206.201 247.823, 217.799 248.644 C 225.675 249.201, 227.324 249.623, 228.574 251.401 C 231.197 255.133, 232.019 260.174, 230.955 266.019 C 228.558 279.186, 228.565 279.908, 231.100 282.606 C 232.403 283.993, 236.626 287.199, 240.485 289.729 C 248.400 294.920, 273.032 313.432, 277.302 317.398 C 278.842 318.829, 280.269 320, 280.471 320 C 280.673 320, 280.374 318.313, 279.805 316.250 C 276.568 304.503, 253.620 268.251, 237.868 250 C 229.232 239.993, 222.191 229.840, 218.972 222.748 C 216.598 217.518, 216.424 208.068, 218.537 199.105 C 219.366 195.588, 219.855 192.521, 219.623 192.290 C 219.392 192.059, 215.359 196.186, 210.661 201.463 M 287.431 210.177 C 286.369 212.545, 283.319 217.830, 280.653 221.921 L 275.806 229.359 279.668 232.567 C 281.792 234.332, 285.955 239.201, 288.920 243.388 C 291.885 247.574, 294.404 251, 294.517 251 C 294.630 251, 294.569 244.138, 294.381 235.751 C 294.035 220.339, 292.957 212.411, 290.634 208.186 C 289.380 205.907, 289.333 205.936, 287.431 210.177 M 225.972 212.615 C 224.704 217.904, 224.756 218.476, 226.869 222.459 C 229.237 226.922, 242.375 244.733, 248.291 251.500 L 251.788 255.500 253.509 249.500 C 254.455 246.200, 256.710 240.463, 258.520 236.751 L 261.812 230.002 259.156 228.215 C 257.695 227.232, 255.150 225.783, 253.500 224.994 C 247.675 222.210, 239.433 216.719, 233.829 211.888 C 230.710 209.200, 227.969 207, 227.739 207 C 227.508 207, 226.713 209.527, 225.972 212.615 M 301.530 216.750 C 301.939 217.713, 302.491 227.500, 302.756 238.500 C 303.311 261.531, 302.052 274.038, 296.384 301.780 C 294.442 311.284, 293.010 319.531, 293.202 320.105 C 293.537 321.112, 311.405 300.241, 321.417 287.148 C 326.225 280.860, 326.258 280.765, 324.756 277.648 C 323.922 275.917, 321.455 272.475, 319.274 270 C 312.950 262.822, 312.398 261.270, 315.131 258.360 C 316.398 257.012, 319.361 254.692, 321.715 253.205 C 324.152 251.665, 325.997 249.729, 325.998 248.710 C 326.002 244.446, 316.404 229.559, 307.648 220.250 C 302.668 214.956, 300.156 213.519, 301.530 216.750 M 177.280 225.447 C 161.981 232.759, 147.773 241.136, 142.828 245.759 C 137.230 250.994, 130.656 263.114, 128.535 272.114 C 127.707 275.626, 127.023 282.231, 127.015 286.792 C 127.007 291.353, 126.287 298.553, 125.416 302.792 C 122.511 316.931, 110.969 355.289, 104.292 373 C 94.131 399.950, 93.445 403.826, 96.884 414.875 C 99.479 423.213, 102.862 428.633, 109.227 434.654 C 119.154 444.042, 124.979 445.581, 138.688 442.438 C 158.797 437.828, 197.065 425.447, 226.399 414.061 C 228.946 413.073, 229.145 413.120, 228.040 414.452 C 226.105 416.784, 186.327 436.360, 176.066 440.031 C 171.056 441.823, 167.142 443.475, 167.368 443.702 C 167.806 444.140, 241.264 442.070, 241.727 441.606 C 241.877 441.457, 242.285 435.297, 242.634 427.917 C 243.128 417.473, 242.910 412.776, 241.650 406.720 C 240.760 402.441, 239.732 394.004, 239.366 387.970 C 238.999 381.937, 238.429 377.003, 238.100 377.007 C 237.770 377.011, 233.675 377.931, 229 379.052 C 213.040 382.880, 189.881 386.226, 183.938 385.564 C 178.775 384.988, 177.165 385.410, 161.438 391.462 C 152.122 395.047, 143.713 397.984, 142.750 397.990 C 137.758 398.019, 144.241 392.354, 155.708 386.667 C 160.269 384.405, 164 382.265, 164 381.911 C 164 381.557, 161.188 381.917, 157.750 382.710 C 143.123 386.084, 132.149 390.999, 116.929 400.993 C 105.679 408.380, 104.590 408.627, 107.423 403.148 C 109.412 399.303, 116.368 393.123, 123.739 388.652 C 134.630 382.047, 143.963 379.246, 164.548 376.406 C 167.377 376.015, 167.567 375.735, 167.192 372.516 C 166.632 367.726, 168.266 358.917, 174.149 335 C 179.321 313.972, 179.632 310.531, 177.446 298.500 L 176.900 295.500 178.613 298.500 C 182.259 304.884, 184.166 312.742, 185.508 326.903 C 186.269 334.931, 187.306 342.863, 187.812 344.528 C 190.707 354.044, 198.294 363.529, 206.460 367.839 C 211.263 370.375, 212.159 370.495, 225.500 370.385 C 240.604 370.261, 254.397 367.887, 261.668 364.160 C 272.409 358.655, 281.606 342.587, 279.501 333.004 C 278.565 328.741, 274.181 323.973, 264.557 316.747 C 260.125 313.421, 255.044 309.335, 253.265 307.668 C 251.486 306.001, 249.763 304.904, 249.436 305.230 C 249.110 305.557, 250.228 312.552, 251.921 320.776 C 255.283 337.102, 255.531 340.428, 253.938 347.852 C 251.560 358.944, 243.961 365.928, 234.218 365.978 C 225.263 366.024, 219.106 360.855, 213.423 348.520 C 207.248 335.119, 199.975 306.684, 200.044 296.211 C 200.097 288.131, 201.541 283.765, 206.582 276.446 C 210.353 270.970, 210.379 270.866, 209.138 266.225 C 207.449 259.912, 203.855 255.467, 198.068 252.535 C 188.593 247.733, 185.791 241.079, 187.632 227.753 C 188.266 223.171, 188.234 221.007, 187.533 221.020 C 186.965 221.032, 182.351 223.024, 177.280 225.447 M 327.515 232.664 C 333.043 241.100, 335.532 247.745, 334.582 251.531 C 334.201 253.048, 331.825 255.320, 328.236 257.599 C 325.081 259.603, 322.340 261.385, 322.145 261.559 C 321.950 261.734, 323.912 264.483, 326.507 267.667 C 329.101 270.852, 331.644 274.564, 332.158 275.916 C 333.165 278.564, 332.515 292.867, 330.836 305 C 329.416 315.259, 325.642 326.847, 320.396 337.054 C 317.978 341.759, 316 345.907, 316 346.273 C 316 348.091, 320.282 344.848, 327.500 337.562 C 337.195 327.777, 352.643 316, 355.785 316 C 357.042 316, 359.187 316.731, 360.551 317.625 C 362.916 319.175, 363.218 319.121, 367.068 316.453 C 369.895 314.493, 372.735 313.521, 376.552 313.204 C 379.548 312.956, 382 312.535, 382 312.270 C 382 312.005, 380.728 310.148, 379.174 308.144 C 371.120 297.759, 366.432 287.838, 362.569 273 C 357.046 251.790, 350.063 241.842, 335.347 234.222 C 330.863 231.900, 326.874 230, 326.482 230 C 326.091 230, 326.555 231.199, 327.515 232.664 M 282.989 252.250 C 281.899 254.037, 281.006 256.038, 281.004 256.695 C 280.997 258.893, 292.241 279.160, 293.004 278.324 C 293.418 277.871, 294.059 272.461, 294.428 266.302 L 295.101 255.104 292.228 253.618 C 290.647 252.800, 288.770 251.427, 288.055 250.566 C 286.166 248.290, 285.209 248.609, 282.989 252.250 M 254.866 254.885 C 253.248 257.730, 253.279 257.823, 258.318 265.067 L 263.403 272.378 264.729 269.129 C 265.458 267.342, 266.321 263.935, 266.647 261.557 C 267.216 257.409, 267.085 257.130, 263.388 254.617 C 258.477 251.281, 256.888 251.330, 254.866 254.885 M 214.636 259.669 C 215.936 262.238, 217 265.388, 217 266.669 C 217 269.271, 217.660 269.460, 221.562 267.976 C 223.974 267.059, 224.194 266.580, 223.673 263.371 C 222.706 257.415, 220.525 255, 216.113 255 L 212.272 255 214.636 259.669 M 349.568 273.083 C 348.706 275.987, 348 280.280, 348 282.622 C 348 289.887, 356.233 310.108, 359.739 311.453 C 360.835 311.874, 361.040 311.562, 360.523 310.261 C 356.268 299.548, 353.768 289.340, 353.038 279.694 C 352.589 273.750, 351.977 268.643, 351.678 268.345 C 351.380 268.047, 350.430 270.179, 349.568 273.083 M 216.287 278.093 C 214.384 279.311, 211.983 282.379, 210.399 285.618 C 207.955 290.613, 207.773 291.796, 208.291 299.293 C 209.028 309.946, 215.891 336.755, 220.285 346.149 C 224.712 355.614, 228.512 359.273, 233.914 359.273 C 239.074 359.273, 242.417 357.037, 245.187 351.735 C 248.372 345.641, 248.059 335.741, 244.212 320.884 C 239.205 301.541, 237.399 297.465, 232.109 293.566 C 224.654 288.071, 222.170 284.936, 221.817 280.577 C 221.434 275.836, 220.480 275.408, 216.287 278.093 M 316.461 302.724 C 313.260 307.001, 307.434 314.325, 303.515 319 C 292.667 331.941, 291.152 334.200, 287.473 342.924 C 285.600 347.366, 284.220 351, 284.408 351 C 284.595 351, 286.551 350.364, 288.753 349.587 C 290.956 348.810, 295.303 347.856, 298.413 347.468 C 303.602 346.819, 304.302 346.421, 306.897 342.631 C 313.503 332.986, 319.302 318.047, 321.592 304.775 C 322.443 299.842, 322.947 295.613, 322.711 295.377 C 322.475 295.141, 319.662 298.447, 316.461 302.724 M 404.250 313.706 C 400.768 314.376, 401.595 316, 405.418 316 C 409.595 316, 412.178 315.096, 411.435 313.895 C 410.874 312.987, 408.330 312.920, 404.250 313.706 M 384 319.702 C 375.175 320.060, 372 320.673, 372 322.019 C 372 323.079, 407.863 323.412, 411.681 322.388 C 413.023 322.028, 413.655 321.264, 413.324 320.401 C 412.784 318.994, 405.648 318.823, 384 319.702 M 347.399 325.216 C 333.745 335.539, 326.057 344.500, 330.855 344.500 C 331.508 344.500, 337.058 340.450, 343.186 335.500 C 360.181 321.774, 359.745 322.200, 358 321.033 C 355.546 319.393, 354.615 319.761, 347.399 325.216 M 383 328.931 C 367.807 329.455, 366.183 329.693, 362.500 331.940 C 358.789 334.205, 338.427 349.496, 333.200 353.944 L 330.901 355.901 334.849 359.849 C 337.020 362.020, 339.091 365.137, 339.451 366.775 L 340.105 369.754 349.802 367.274 C 355.599 365.791, 360.506 363.901, 362 362.575 C 367.151 358.004, 378.896 349.933, 383.121 348.062 C 385.530 346.995, 390.650 343.595, 394.500 340.506 C 398.350 337.417, 403.396 333.677, 405.713 332.195 C 408.031 330.713, 409.943 329.259, 409.963 328.965 C 410.012 328.254, 402.920 328.245, 383 328.931 M 292.994 354.934 C 288.568 356.280, 283.691 359.166, 275.500 365.285 C 266.595 371.937, 263.451 373.505, 255.764 375.124 C 247.659 376.832, 247.627 376.891, 248.347 388.988 C 248.691 394.770, 249.462 401.231, 250.060 403.347 C 250.991 406.640, 251.462 407.104, 253.324 406.569 C 266.359 402.821, 278.695 401, 291.042 401 C 299.128 401, 309 398.678, 309 396.776 C 309 396.145, 308.023 394.589, 306.829 393.318 C 304.003 390.310, 304.631 389.865, 309.837 391.187 C 312.941 391.974, 314.779 391.966, 316.555 391.157 C 320.842 389.203, 319.519 386.756, 312.473 383.608 C 305.230 380.373, 303.945 378.382, 309.750 379.389 C 311.813 379.747, 316.302 380.320, 319.727 380.662 C 325.117 381.201, 326.045 381.046, 326.636 379.507 C 327.846 376.352, 325.510 374.570, 315.480 371 C 306.091 367.658, 302.320 365, 306.969 365 C 310.774 365, 323.398 368.195, 327.210 370.123 C 332.175 372.634, 333 372.501, 333 369.187 C 333 363.531, 324.658 358.419, 310.792 355.579 C 302.583 353.897, 297.060 353.697, 292.994 354.934 M 382.223 357.557 C 381 358.413, 380 359.448, 380 359.857 C 380 360.267, 382.137 361.629, 384.750 362.885 C 387.363 364.141, 391.621 366.517, 394.214 368.165 C 399.287 371.390, 401 371.234, 401 367.545 C 401 364.846, 395.374 359.472, 390.355 357.375 C 386.154 355.620, 384.950 355.646, 382.223 357.557 M 370.250 366.116 C 368.165 368.258, 368.765 369.004, 374.750 371.709 C 377.913 373.138, 382.867 375.859, 385.759 377.757 C 391.291 381.385, 393.157 381.444, 394.975 378.046 C 395.905 376.309, 395.654 375.584, 393.399 373.494 C 387.078 367.636, 373.105 363.182, 370.250 366.116 M 365.036 375.456 C 364.034 376.664, 364.697 377.447, 368.914 380.042 C 374.192 383.290, 375.706 385.719, 371.750 384.593 C 365.514 382.817, 364 382.750, 364 384.253 C 364 388.146, 370.792 389.808, 379.402 388.020 C 386.366 386.575, 387.527 384.640, 383.418 381.326 C 379.382 378.069, 371.054 374, 368.426 374 C 367.226 374, 365.701 374.655, 365.036 375.456 M 357 391.977 C 357 394.761, 360.548 400.363, 363.420 402.114 C 367.645 404.691, 374.262 404.543, 379.212 401.761 C 382.985 399.640, 386.823 394.490, 385.567 393.233 C 385.247 392.914, 382.852 393.737, 380.243 395.063 C 374.512 397.975, 367.502 398.273, 363.956 395.757 C 362.605 394.798, 360.488 393.281, 359.250 392.385 C 357.701 391.264, 357 391.137, 357 391.977 M 395.195 400.384 C 389.843 420.628, 377.030 428.747, 361.598 421.676 C 358.351 420.188, 355.466 419.201, 355.185 419.481 C 354.397 420.269, 356.802 424.962, 360.177 429.224 C 363.586 433.528, 369.561 437, 373.559 437 C 385.600 437, 398.841 416.101, 397.001 400 L 396.486 395.500 395.195 400.384 M 318.035 407.934 C 316.630 410.559, 316.727 416.327, 318.200 417.800 C 318.860 418.460, 320.795 419, 322.500 419 C 324.205 419, 326.140 418.460, 326.800 417.800 C 328.488 416.112, 328.292 410.862, 326.443 408.223 C 324.445 405.370, 319.498 405.200, 318.035 407.934 M 322.067 454.419 C 321.389 455.236, 321.019 458.098, 321.195 461.169 L 321.500 466.500 325.252 466.810 C 328.515 467.081, 329.134 466.779, 330.002 464.495 C 331.467 460.642, 331.220 456.363, 329.429 454.571 C 327.472 452.615, 323.631 452.535, 322.067 454.419" stroke="none" fill="black" fill-rule="evenodd"/>
</svg>